<svg version="1.2" xmlns="http://www.w3.org/2000/svg" viewBox="0 0 1024 1024" width="1024" height="1024">
	<style>
		.s0 { fill: #010101 } 
		.s1 { fill: #ffffff } 
	</style>
	<g id="Layer 1">
		<path id="Path 0" class="s0" d="m447.75 3.53c-13.25 1.78-34.38 5.55-46.96 8.4-12.58 2.84-35.87 9.45-51.76 14.68-15.89 5.24-44.06 16.93-62.6 25.98-18.54 9.05-44.55 23.73-57.79 32.62-13.24 8.88-33.29 23.84-44.54 33.24-11.26 9.41-26.97 23.66-34.92 31.67-7.94 8.02-22.17 23.78-31.62 35.03-9.45 11.25-24.13 30.74-32.63 43.32-8.5 12.58-22.05 35.88-30.1 51.77-8.06 15.89-18.48 39.18-23.16 51.76-4.68 12.58-11.79 35.34-15.79 50.57-4 15.23-9.2 39.6-11.55 54.17-3.08 19.07-4.29 40.32-4.33 75.85-0.04 36.28 1.1 56.37 4.28 75.84 2.38 14.57 7.6 38.95 11.6 54.17 4 15.23 11.11 37.99 15.79 50.57 4.68 12.58 15.1 35.87 23.16 51.76 8.05 15.89 21.6 39.19 30.1 51.77 8.5 12.58 23.18 32.08 32.63 43.32 9.45 11.25 23.68 27.03 31.62 35.07 7.95 8.04 24.2 22.69 36.12 32.56 11.92 9.87 30.88 24.07 42.14 31.57 11.25 7.49 34.01 20.64 50.56 29.22 16.55 8.58 42.01 19.93 56.58 25.23 14.57 5.29 40.03 12.95 56.58 17.02 16.56 4.07 43.1 9.06 58.99 11.08 15.89 2.02 43.52 3.68 61.4 3.68 17.88 0 45.51-1.67 61.4-3.71 15.89-2.05 40.27-6.42 54.17-9.73 13.91-3.3 36.66-9.88 50.57-14.61 13.9-4.73 36.11-13.68 49.35-19.9 13.25-6.22 34.38-17.38 46.96-24.8 12.58-7.42 30.61-19.28 40.07-26.36 9.45-7.07 27.16-21.53 39.33-32.13 12.18-10.59 31.92-30.63 43.86-44.54 11.95-13.9 28.55-35.03 36.89-46.95 8.34-11.92 21.68-34.13 29.65-49.36 7.98-15.23 18.3-36.9 22.95-48.15 4.65-11.26 12.36-34.01 17.14-50.57 4.78-16.55 10.85-43.1 13.48-58.99 2.63-15.89 5.44-45.68 6.22-66.21 0.87-22.6 0.32-47.77-1.4-63.81-1.56-14.56-5.49-39.75-8.74-55.98-3.25-16.22-10.25-42.76-15.57-58.99-5.32-16.22-17.71-45.74-27.53-65.61-9.82-19.86-24.98-46.41-33.7-58.99-8.71-12.58-25.48-34.25-37.27-48.15-11.78-13.91-31.93-34.49-44.76-45.75-12.83-11.26-31.08-26.25-40.54-33.33-9.47-7.08-27.5-18.94-40.08-26.36-12.58-7.42-33.71-18.57-46.96-24.79-13.24-6.22-35.45-15.18-49.35-19.91-13.91-4.73-36.66-11.31-50.57-14.61-13.9-3.31-38.28-7.68-54.17-9.72-16.26-2.09-44.69-3.59-65.01-3.43-19.86 0.16-46.95 1.75-60.19 3.52z"/>
		<path id="Path 1" fill-rule="evenodd" class="s1" d="m507.94 31.29c15.89-0.14 42.98 1.4 60.19 3.42 17.22 2.02 42.68 6.48 56.59 9.9 13.9 3.42 35.57 9.92 48.15 14.43 12.58 4.52 35.88 14.59 51.77 22.38 15.89 7.79 39.72 21.43 52.97 30.31 13.24 8.89 32.2 22.93 42.13 31.21 9.93 8.28 29.24 26.85 42.91 41.26 13.79 14.54 24.49 27.82 24.04 29.82-0.44 1.99-17.58 11.94-38.09 22.12-20.51 10.18-39.18 18.58-41.5 18.66-2.32 0.09-12.37-5.53-22.34-12.48-9.97-6.96-22.16-15.66-27.09-19.35-4.93-3.68-12.37-9.1-16.53-12.04-4.17-2.93-23.13-16.47-42.14-30.08-19.01-13.61-35.91-24.72-37.57-24.68-1.65 0.04-22.78 10.16-46.95 22.49-24.17 12.33-80.78 41.17-125.8 64.08-45.03 22.91-101.37 51.69-125.21 63.94-23.83 12.26-66.63 34.23-95.1 48.82-28.47 14.6-75.06 38.5-155.3 79.69l-34.31-19.09c-18.87-10.5-34.31-20.17-34.31-21.49 0-1.33 4.34-15.68 9.65-31.91 5.31-16.22 16.58-43.58 25.04-60.79 8.45-17.22 21.8-41.05 29.66-52.97 7.86-11.92 20.84-29.8 28.85-39.73 8-9.93 25.81-28.89 39.57-42.14 13.76-13.24 33.13-30.18 43.04-37.63 9.9-7.46 27.22-19.3 38.48-26.32 11.25-7.01 32.38-18.4 46.95-25.32 14.57-6.91 35.69-15.81 46.95-19.76 11.26-3.96 32.38-10.1 46.95-13.66 14.57-3.56 38.4-7.9 52.97-9.65 14.57-1.75 39.49-3.29 55.38-3.44zm139.81 144.21c1.9 0 3.42 1.9 3.39 4.21-0.03 2.32-1.51 5.84-3.28 7.83-1.77 1.99-22.75 37.74-46.63 79.46-23.88 41.71-57.8 100.76-75.38 131.22-17.58 30.46-35.74 61.88-40.37 69.82-4.62 7.95-11.49 20.14-15.25 27.09-3.76 6.95-6.56 13.17-6.23 13.82 0.33 0.66 68.86-36.06 152.29-81.6 83.43-45.53 164.09-89.67 179.25-98.09 24.83-13.8 29.26-17.34 44.84-35.78 9.5-11.26 18.67-20.47 20.38-20.47 1.71 0 14.42 16.8 28.26 37.32 24.67 36.61 25.62 37.66 73.98 72.04l4.28-5.32c2.34-2.92 4.69-4.78 5.2-4.11 0.51 0.66 1.62 4.99 2.46 9.63 1.24 6.85-0.29 12.15-8.21 28.29-5.36 10.92-9.2 20.95-8.54 22.27 0.66 1.32 4.45 2.41 8.43 2.41 5.9 0 7.21 0.99 7.17 5.42-0.03 2.97-2.18 8.12-4.77 11.43-2.59 3.31-4.72 7.1-4.74 8.43-0.02 1.32-3.3 6.47-7.28 11.44-3.98 4.96-8.59 9.01-10.25 8.99-1.65-0.03-8.6-7.88-15.44-17.46-6.83-9.58-13.88-20.47-15.65-24.2-2.76-5.81-2.7-7.1 0.39-8.99 1.99-1.22 8.22-2.23 13.85-2.25 5.63-0.02 10.77-1.12 11.43-2.44 0.67-1.33-0.15-5.39-1.8-9.03-1.66-3.64-9.08-16.92-16.5-29.5-7.42-12.58-18.67-32.62-24.98-44.54-6.32-11.92-17.39-30.88-24.6-42.14-12.91-20.14-13.18-20.39-17.47-15.65-2.39 2.65-17.16 27.03-32.81 54.18-15.66 27.15-33.13 57.48-38.84 67.41-5.7 9.94-10.36 18.88-10.35 19.87 0.01 0.99 3 1.79 6.64 1.77 3.64-0.01 10.16 0.8 14.5 1.81 4.6 1.07 7.87 3.34 7.86 5.45-0.01 1.98-3.14 8.49-6.94 14.44-3.81 5.96-9.51 13.27-18.43 21.65l-8.43-8.46c-4.63-4.65-9.24-8.44-10.23-8.41-1 0.02-11.16 16.02-22.6 35.55-11.43 19.54-22.53 38.23-24.67 41.54-2.13 3.31-5.24 9-6.9 12.64-2.41 5.29-2.41 6.83-0.01 7.68 1.66 0.59 5.18 1.41 7.83 1.83 3.08 0.49 5.06 2.93 5.49 6.77 0.38 3.29-0.71 7.39-2.41 9.11-1.69 1.71-4.44 3.07-6.09 3.01-1.66-0.06-8.39-7.42-14.97-16.36-6.57-8.94-11.99-18.15-12.04-20.47-0.05-3 2.34-4.56 8.35-5.42 4.63-0.66 8.42-2.55 8.41-4.21-0.01-1.66-12.47-23.87-27.69-49.36-16.12-27.01-28.93-45.99-30.68-45.5-1.66 0.46-15.22 21.32-30.15 46.35-14.92 25.02-27.11 46.85-27.08 48.51 0.02 1.66 3.84 3.55 8.47 4.21 5.95 0.85 8.43 2.45 8.45 5.42 0.02 2.32-10.19 19.38-22.68 37.92-12.49 18.54-22.25 34.52-21.69 35.52 0.55 0.99 4.53 1.82 8.83 1.84 4.31 0.01 10.27 0.56 13.25 1.2 3.1 0.67 5.42 2.97 5.43 5.38 0 2.32-6.95 14.51-15.45 27.09-8.51 12.58-18.26 25.31-21.68 28.29-3.43 2.98-7.31 4.88-8.63 4.22-1.33-0.67-10.55-13.4-20.5-28.29-9.94-14.9-19.75-29.26-21.8-31.91-3.65-4.71-3.87-4.64-10.62 3.61-3.79 4.64-14.5 20.35-23.81 34.92-9.3 14.56-17.52 28.38-18.25 30.7-0.93 2.93-0.06 4.18 2.88 4.1 2.32-0.06 5.84 1.6 7.82 3.69 3.24 3.4 2.6 5.19-6.01 17.06-5.3 7.3-10.99 13.77-12.65 14.37-1.65 0.61-5.44-1.47-8.42-4.61-2.98-3.14-11.61-13.7-19.18-23.47-7.58-9.77-13.81-19.66-13.85-21.98-0.05-2.83 2.28-4.61 7.14-5.42 3.98-0.66 7.23-2.55 7.23-4.21 0-1.66-9.17-16.55-20.38-33.11-11.21-16.55-23.4-33.79-27.09-38.32-3.99-4.89-7.93-7.57-9.72-6.62-1.65 0.88-13.88 18.13-27.17 38.32-13.3 20.2-24.13 38.07-24.08 39.73 0.05 1.66 2.42 3.28 5.26 3.61 2.84 0.33 6.37 2.45 7.83 4.7 2.12 3.28 1.45 5.34-3.37 10.3-3.31 3.41-7.64 6.19-9.63 6.19-1.99-0.01-14.68-16.77-28.29-37.38-13.58-20.56-25.49-37.41-26.49-37.44-0.99-0.04-4.03 2.4-6.75 5.41-2.71 3.02-13.01 17.72-22.87 32.67-10.11 15.33-19.51 27.11-21.54 27.01-1.99-0.1-15.82-12.33-30.75-27.19-14.92-14.85-27.12-28.63-27.12-30.62 0-2.49 3.76-4.17 12.08-5.42 6.65-0.99 12.1-2.61 12.12-3.61 0.03-0.99-5-7.76-11.18-15.05-6.17-7.28-24.34-27.63-40.37-45.22-16.03-17.59-30.5-31.95-32.16-31.9-1.66 0.04-11.62 9.56-22.14 21.14-10.53 11.59-20.01 20.17-21.07 19.06-1.06-1.11-1.94-17.8-1.94-72.16l7.23-4.06c3.97-2.23 56.52-28.99 116.77-59.46 60.26-30.47 148.56-75.26 196.24-99.54 47.67-24.27 101.84-52.02 120.38-61.66 18.54-9.65 64.59-33.02 102.33-51.94 37.74-18.92 68.97-35.22 69.39-36.21 0.42-1 2.31-1.81 4.21-1.81zm-85.66 516.13c11.79 0.25 15.8 1.22 16.32 3.94 0.39 1.99-4.21 10.39-10.21 18.66-5.99 8.28-12.26 14.7-13.91 14.27-1.66-0.43-8.18-7.2-14.49-15.05-6.31-7.84-11.1-15.35-10.64-16.67 0.46-1.33 4.54-3.1 9.07-3.95 4.53-0.84 15.26-1.38 23.86-1.2zm-385.82 3.98c10.26 0.02 21.1 0.56 24.08 1.2 3.15 0.68 5.38 2.93 5.34 5.39-0.04 2.31-3.83 8.81-8.43 14.44-4.77 5.85-10.41 10.24-13.16 10.24-2.73 0-9.51-5.22-15.65-12.04-5.96-6.62-10.84-13.67-10.84-15.65 0-2.91 3.67-3.61 18.66-3.58zm111.36 2.37c2.65 0 4.85 1.36 4.88 3.01 0.04 1.66-0.77 3.77-1.8 4.7-1.03 0.92-3.23 1.19-4.89 0.6-1.65-0.6-3.01-2.71-3.01-4.7 0-2 2.14-3.61 4.82-3.61z"/>
		<path id="Path 2" class="s0" d="m328.56 377.13c-4.63 0.56-9.83 2.29-11.54 3.83-1.72 1.55-3.12 4.98-3.12 7.63 0 2.65 1.72 6.44 3.83 8.42 2.1 1.99 3.78 4.7 3.72 6.02-0.05 1.33-4.03 17.04-8.83 34.92-7.42 27.61-9.77 33.31-15.66 37.92-3.81 2.98-6.92 7.58-6.92 10.23 0 2.65 2.16 5.9 4.81 7.22 2.65 1.33 11.86 2.41 20.47 2.41 8.61 0 17.82-1.08 20.47-2.41 3.09-1.54 4.79-4.77 4.75-9.03-0.03-3.64-1.61-8.24-3.5-10.23-2.99-3.13-2.98-5.69 0.06-19.26 1.93-8.61 4.05-18.09 4.71-21.07 0.66-2.98 2.55-5.42 4.21-5.42 1.65 0 4.29 4.06 5.86 9.03 1.57 4.97 5.09 14.18 7.83 20.47 4.46 10.27 5.76 11.44 12.79 11.45 6.79 0 10.06-2.56 24.68-19.38 9.27-10.66 17.67-19.33 18.66-19.27 1 0.06 1.81 2.28 1.81 4.93 0 2.65-1.63 11.86-3.61 20.46-1.99 8.61-4.43 15.63-5.42 15.61-0.99-0.03-4.24 2.14-7.22 4.81-2.98 2.68-5.42 7.57-5.42 10.88 0 4.29 1.56 6.36 5.42 7.19 2.98 0.65 11.64 1.19 19.26 1.21 7.61 0.02 16.55-1.05 19.86-2.38 4.41-1.76 6.01-4.18 5.96-9.03-0.03-3.64-1.71-8.24-3.72-10.23-3.26-3.23-3.1-6.03 1.54-26.48 2.85-12.58 6.69-28.57 8.53-35.52 2.27-8.57 5.09-13.53 8.76-15.41 2.98-1.52 6.21-3.96 7.19-5.41 0.97-1.46 1.78-5.09 1.8-8.07 0.02-2.98-1.59-5.96-3.57-6.62-1.99-0.66-7.14-1.19-11.44-1.18-4.3 0.02-12.01 0.83-17.13 1.81-8.05 1.53-12.01 5.04-29.23 25.85-10.96 13.25-22.18 26.25-24.94 28.9l-5.01 4.81c-5.53-13.06-9.6-24.98-12.61-34.91-3.02-9.93-7.4-19.96-9.75-22.27-2.54-2.51-7.43-4.06-12.09-3.83-4.3 0.21-11.61 0.84-16.25 1.4z"/>
	</g>
</svg>