<svg version="1.2" xmlns="http://www.w3.org/2000/svg" viewBox="0 0 1440 125" width="1440" height="125">
	<defs>
		<clipPath clipPathUnits="userSpaceOnUse" id="cp1">
			<path d="m860.11 22.56h483v106h-483z"/>
		</clipPath>
		<clipPath clipPathUnits="userSpaceOnUse" id="cp2">
			<path d="m678 85.56h369v45h-369z"/>
		</clipPath>
		<clipPath clipPathUnits="userSpaceOnUse" id="cp3">
			<path d="m1445 24.56h-503v106h503z"/>
		</clipPath>
	</defs>
	<style>
		.s0 { fill: #a9caef } 
		.s1 { fill: #ffffff } 
	</style>
	<path class="s0" d="m68.13 97.38c-10.3 3.98-42.91 20.08-34.87 33.18h22.99 610.75c-5.57-2.1-25.15-21.44-26.88-20.46-2.04 1.4-14.75-2.33-30.79-13.75-7.32-1.75-11.46-0.22-15.9-4.75-0.86-0.89-1.2-1.92-2.2-2.76l-13.57-10.56c-3.46-0.69-1.56-3.21-5.98-3.24-4.19-0.03-3.82-1.66-5.45-2.08-9.05-2.31 2.54-8.38-12.48-3.22-4.17 1.43-6.27 0.76-8.75 0.86-11.15 10.1-18.28 12.63-32.02 13.5-4.17 1.54-17.96-0.72-19.32 2.2-3.95 8.43-4.37 3.16-13.2 6.49-5.82 0-3.74-0.43-8.01 1.56-3.27-0.17-2.44-0.17-3.36 0.03-12.25-0.22-25.5-16.13-28-16.13-2.5 0-16.91 9.07-20.54-14.01-12.61-0.53-32.22-11.72-36.63-25.22-13.19-14.01-4.02 3.18-20.12-9-2.57-1.95-11.09-8.4-17.54-12.61-21.15-11.33-21.66-9.78-21.66-9.78-4.69 3.73-9.59 22.52-17.07 15.65-1.48-1.36-4.61-1.6-5.75 0.53-0.94 1.76-0.67 3.98-4.37 6.21-8.59 3.08-29.89 25.31-48.64 30.1-11.96 11.66-18.78 12.76-31.15 4.9-6.77-7.16-13.48-14.01-19.33-13.28-4.33 0.55-15.37 19.29-20.55 21.57-3.61 1.59-5.16 2.69-9.16 2.28-17.03-1.72-19.41-12.41-25.65-12.41-3.12 1.84-11.17 7.54-12.84 9.1-3.02 2.81-6.04 2.83-10.09 5.97-18.86 14.63-11.84 3.64-51.87 19.13z"/>
	<path class="s1" d="m548.5 131.11c-1.58-0.93-25.28-3.02-25.28-3.02 10.28 1.37 0.59 0.05 0.53-4.85-0.11-9.55-5.39-12.87-57.62-27.25-7.64-2.1-20.58 12.3-33.14 4.94-9.31-5.46-12.62-9.51-20.98-12.76-23.95-9.31-16.62-21.68-56.98-37.72-29.43-11.69-28.64-23.1-49.36-31.89-16.43-6.98-20.99-16.23-33.1-8.84-27.12 16.56-13.88 16.63-103.31 77.04-8.99 6.07-7.36 3.29-21.23 8.98-8.95 3.67-7.9 2.77-34-1.56-30.09-4.99-27.87-26.06-85.38 15.79-29.66 21.57-22.48 12.04-38.88 21.14h538.46z"/>
	<g id="Clip-Path" clip-path="url(#cp1)">
		<g>
			<path class="s0" d="m1567.11 128.56c-3.04-1.32-6.03-2.71-8.88-4.29-17.47-9.67-35.19-18.77-55-25.33-23-7.61-46.14-15.36-64.96-29.21-3.74-2.76-8.61-4.25-13.7-4.36-10.77-0.23-21.98 0.23-31.66 3.38-11.21 3.66-22.39 7.48-33.62 11.18-5.74 1.89-11.25 2.43-17.26 2.21-8.73-0.3-16.22-3.53-23.94-6.12-27.47-9.22-55.3-17.86-78.92-33.13-8.62-5.58-18.85-8.4-30.2-6.97-11.02 1.39-20.51-1.1-28.21-7.4-8.3-6.78-17.64-7.36-27.89-3.85-8.6 2.95-17.1 6.1-25.61 9.22-15.33 5.61-30.35 11.85-46.04 16.66-9.32 2.85-17.96 6.04-25.84 10.94-11.5 7.14-24.15 12.51-38.82 14.04-8.14 0.84-15.8 2.78-23.12 5.74-10.09 4.07-20.8 6.63-31.77 8.76-8.13 1.58-16.65 2.18-24.21 5.46-6.32 2.75-12.98 4.86-19.75 6.77-15.84 4.45-29.85 11.23-41.65 20.94q-3.37 2.77-6.94 5.35h698z"/>
		</g>
	</g>
	<g id="Clip-Path" clip-path="url(#cp2)">
		<g>
			<path class="s0" d="m1218.13 166.4c-2.32-1-4.61-2.06-6.79-3.27-13.34-7.37-26.88-14.31-42.02-19.32-17.57-5.8-35.25-11.71-49.62-22.28-2.86-2.1-6.58-3.23-10.47-3.32-8.22-0.18-16.79 0.18-24.18 2.58-8.57 2.79-17.11 5.7-25.69 8.53-4.38 1.44-8.59 1.85-13.19 1.68-6.67-0.23-12.39-2.69-18.28-4.66-20.99-7.04-42.25-13.63-60.3-25.28-6.59-4.25-14.4-6.4-23.07-5.31-8.42 1.06-15.67-0.84-21.55-5.64-6.34-5.18-13.48-5.62-21.31-2.94-6.57 2.25-13.06 4.65-19.57 7.03-11.71 4.28-23.18 9.04-35.17 12.71-7.12 2.17-13.72 4.6-19.74 8.34-8.79 5.45-18.45 9.54-29.66 10.71-6.22 0.64-12.07 2.12-17.66 4.38-7.71 3.1-15.89 5.06-24.28 6.68-6.2 1.2-12.71 1.66-18.49 4.17-4.83 2.09-9.92 3.7-15.09 5.15-12.1 3.4-22.8 8.57-31.82 15.98q-2.57 2.11-5.3 4.08h533.26z"/>
		</g>
	</g>
	<g id="Clip-Path" clip-path="url(#cp3)">
		<g>
			<path class="s1" d="m959.5 125.56c7.5-5 14.64-2.92 17.5-4.5 17.46-9.67 36.07-13.56 55.88-20.12 23-7.61 46.14-15.36 64.96-29.21 3.74-2.76 8.61-4.25 13.7-4.36 10.77-0.23 21.98 0.23 31.66 3.38 11.21 3.66 22.39 7.48 33.62 11.18 5.74 1.89 11.25 2.43 17.27 2.21 8.73-0.3 16.21-3.53 23.93-6.12 27.47-9.22 55.3-17.86 78.92-33.13 8.62-5.58 18.85-8.4 30.2-6.96 11.02 1.38 20.52-1.11 28.21-7.41 8.3-6.78 17.65-7.36 27.89-3.85 8.6 2.95 17.1 6.1 25.62 9.22 15.32 5.61 30.34 11.85 46.04 16.66 9.31 2.85 17.96 6.04 25.84 10.94 11.49 7.14 24.14 12.51 38.81 14.04 8.14 0.84 15.8 2.78 23.12 5.74 10.09 4.07 20.8 6.63 31.78 8.76 8.12 1.58 16.64 2.18 24.2 5.46 6.32 2.75 12.98 4.86 19.76 6.77 15.84 4.45 29.84 11.23 41.64 20.94q3.37 2.78 6.94 5.35h-722.49c0 0 7.5 0 15-4.99z"/>
		</g>
	</g>
</svg>